<svg xmlns="http://www.w3.org/2000/svg" version="1.1" xmlns:xlink="http://www.w3.org/1999/xlink" xmlns:svgjs="http://svgjs.dev/svgjs" width="1500" height="1500" viewBox="0 0 1500 1500"><rect width="1500" height="1500" fill="#000000"></rect><g transform="matrix(0.6666666666666666,0,0,0.6666666666666666,249.3941601115191,599.5900335746393)"><svg viewBox="0 0 396 119" data-background-color="#ffffff" preserveAspectRatio="xMidYMid meet" height="450" width="1500" xmlns="http://www.w3.org/2000/svg" xmlns:xlink="http://www.w3.org/1999/xlink"><g id="tight-bounds" transform="matrix(1,0,0,1,0.23991259583843316,0.1626200153930597)"><svg viewBox="0 0 395.5199999999999 118.67458516089087" height="118.67458516089087" width="395.5199999999999"><g><svg viewBox="0 0 616.2958945859535 184.91772761516023" height="118.67458516089087" width="395.5199999999999"><g transform="matrix(1,0,0,1,0,54.485746071349695)"><svg viewBox="0 0 395.52 75.94623547246084" height="75.94623547246084" width="395.52"><g id="textblocktransform"><svg viewBox="0 0 395.52 75.94623547246084" height="75.94623547246084" width="395.52" id="textblock"><g><svg viewBox="0 0 395.52 75.94623547246084" height="75.94623547246084" width="395.52"><g transform="matrix(1,0,0,1,0,0)"><svg width="395.52" viewBox="1.05 -37.5 197.88 38" height="75.94623547246084" data-palette-color="#32353f"><path d="M1.05-33.9L1.05-35 27.05-35 27.55-25.1 26.65-25.1Q24.55-30.15 22.25-32.02 19.95-33.9 15.5-33.9L15.5-33.9 13.75-33.9 13.75-18.45 15.45-18.45Q17.8-18.45 19.4-20.23 21-22 21.65-25L21.65-25 22.4-25 22.4-10.2 21.55-10.2Q20.65-13.95 19.13-15.55 17.6-17.15 14.95-17.15L14.95-17.15 13.75-17.15 13.75-1.1 15.65-1.1Q20.25-1.1 23.48-3.85 26.7-6.6 27.9-10.9L27.9-10.9 28.9-10.9 28.5 0 1.05 0 1.05-1.1 4-1.1 4-33.9 1.05-33.9ZM31.5-36.6L31.5-37.5 43.75-37.5 43.75-0.9 46.55-0.9 46.55 0 31.7 0 31.7-0.9 34.45-0.9 34.45-36.6 31.5-36.6ZM60.65 0.5Q54.2 0.5 50.97-2.83 47.75-6.15 47.75-12.08 47.75-18 51.37-21.15 55-24.3 60.6-24.3L60.6-24.3Q71.95-24.3 71.5-12.9L71.5-12.9 57.4-12.9 57.4-10.95Q57.4-6.05 58.65-3.55 59.9-1.05 63-1.05L63-1.05Q68.8-1.05 70.59-7.25L70.59-7.25 71.5-7.1Q70.55-3.5 68.07-1.5 65.59 0.5 60.65 0.5L60.65 0.5ZM57.45-16.35L57.45-13.9 62.6-13.9 62.6-16.35Q62.6-20.4 62.12-21.88 61.65-23.35 60.22-23.35 58.8-23.35 58.12-21.78 57.45-20.2 57.45-16.35L57.45-16.35ZM87.29-23.4L87.29-23.4Q85.09-23.4 84.14-21 83.19-18.6 83.19-13.05L83.19-13.05 83.19-10.45Q83.19-5.5 84.29-3.35 85.39-1.2 88.34-1.2 91.29-1.2 93.04-3.2 94.79-5.2 95.29-7.75L95.29-7.75 96.19-7.65Q95.24-3.35 92.69-1.45L92.69-1.45Q90.09 0.5 85.54 0.5L85.54 0.5Q79.74 0.5 76.64-2.63 73.54-5.75 73.54-11.78 73.54-17.8 77.07-21.05 80.59-24.3 86.89-24.3L86.89-24.3Q91.34-24.3 93.69-22.58 96.04-20.85 96.04-18.25 96.04-15.65 94.92-14.45 93.79-13.25 91.82-13.25 89.84-13.25 88.64-14.3 87.44-15.35 87.44-17.4L87.44-17.4Q87.44-18.3 87.69-19.2L87.69-19.2 89.34-19.2Q89.69-20.2 89.69-21L89.69-21Q89.69-23.4 87.29-23.4ZM99.94-7.15L99.94-7.15 99.94-22.9 97.19-22.9 97.19-23.8 99.94-23.8 99.94-30.25 109.24-32.55 109.24-23.8 115.74-23.8 115.74-22.9 109.24-22.9 109.24-6.05Q109.24-3.7 109.72-2.6 110.19-1.5 111.69-1.5 113.19-1.5 114.32-3 115.44-4.5 115.79-7.1L115.79-7.1 116.64-7Q116.24-3.55 114.44-1.53 112.64 0.5 108.49 0.5 104.34 0.5 102.14-1.15 99.94-2.8 99.94-7.15ZM133.84-22.4L133.84-22.4Q131.99-22.4 130.59-20 129.19-17.6 129.19-14.3L129.19-14.3 129.19-0.9 132.74-0.9 132.74 0 117.14 0 117.14-0.9 119.89-0.9 119.89-22.9 117.14-22.9 117.14-23.8 129.19-23.8 129.19-19Q129.84-21.55 131.69-22.93 133.54-24.3 135.89-24.3 138.24-24.3 139.71-22.98 141.19-21.65 141.19-19.23 141.19-16.8 140.09-15.5 138.99-14.2 136.71-14.2 134.44-14.2 133.36-15.7 132.29-17.2 133.09-19.85L133.09-19.85 134.89-19.85Q136.14-22.4 133.84-22.4ZM157.79-9.85L157.79-9.85 157.79-14.1Q157.79-18.95 157.26-21.18 156.74-23.4 154.84-23.4L154.84-23.4Q153.74-23.4 153.06-22.78 152.39-22.15 152.09-20.7L152.09-20.7Q151.64-18.45 151.64-13.85L151.64-13.85 151.64-9.95Q151.64-4.5 151.96-3.4 152.29-2.3 152.64-1.6L152.64-1.6Q153.19-0.4 154.79-0.4L154.79-0.4Q156.74-0.4 157.34-2.65L157.34-2.65Q157.79-4.25 157.79-9.85ZM154.69 0.5Q148.44 0.5 145.24-2.7 142.04-5.9 142.04-11.88 142.04-17.85 145.46-21.08 148.89-24.3 155.09-24.3 161.29-24.3 164.34-21.33 167.39-18.35 167.39-12.25L167.39-12.25Q167.39 0.5 154.69 0.5L154.69 0.5ZM168.88-22.9L168.88-23.8 180.93-23.8 180.93-19.2Q181.73-21.5 183.38-22.9 185.03-24.3 188.38-24.3L188.38-24.3Q196.13-24.3 196.13-15.95L196.13-15.95 196.13-0.9 198.93-0.9 198.93 0 184.78 0 184.78-0.9 186.83-0.9 186.83-17.15Q186.83-20.15 186.43-21.03 186.03-21.9 184.98-21.9L184.98-21.9Q183.38-21.9 182.16-19.8 180.93-17.7 180.93-14.7L180.93-14.7 180.93-0.9 183.08-0.9 183.08 0 168.88 0 168.88-0.9 171.63-0.9 171.63-22.9 168.88-22.9Z" opacity="1" transform="matrix(1,0,0,1,0,0)" fill="#ffffff" class="wordmark-text-0" data-fill-palette-color="primary" id="text-0"></path></svg></g></svg></g></svg></g></svg></g><g transform="matrix(1,0,0,1,431.3781669707933,0)"><svg viewBox="0 0 184.91772761516023 184.91772761516023" height="184.91772761516023" width="184.91772761516023"><g><svg></svg></g><g id="icon-0"><svg viewBox="0 0 184.91772761516023 184.91772761516023" height="184.91772761516023" width="184.91772761516023"><g><path d="M0 92.459c0-51.064 41.395-92.459 92.459-92.459 51.064 0 92.459 41.395 92.459 92.459 0 51.064-41.395 92.459-92.459 92.459-51.064 0-92.459-41.395-92.459-92.459zM92.459 178.069c47.281 0 85.61-38.329 85.61-85.61 0-47.281-38.329-85.61-85.61-85.61-47.281 0-85.61 38.329-85.61 85.61 0 47.281 38.329 85.61 85.61 85.61z" data-fill-palette-color="accent" fill="#ffffff" stroke="transparent"></path></g><g transform="matrix(1,0,0,1,38.95308949875566,44.68585105892407)"><svg viewBox="0 0 107.01154861764891 95.54602549731209" height="95.54602549731209" width="107.01154861764891"><g><svg xmlns="http://www.w3.org/2000/svg" xmlns:xlink="http://www.w3.org/1999/xlink" version="1.1" x="0" y="0" viewBox="7.999999938764581 12.999999987839177 84.00000006123543 75.00000001216083" enable-background="new 0 0 100 100" xml:space="preserve" height="95.54602549731209" width="107.01154861764891" class="icon-dxe-0" data-fill-palette-color="accent" id="dxe-0"><path fill="#ffffff" d="M83.394 13.946A1.5 1.5 0 0 0 82 13H19A1.5 1.5 0 0 0 17.629 13.891L8.129 35.256A1.5 1.5 0 0 0 8 35.865V36.958C8 42.292 11.901 46.912 17 48.209V74C17 81.458 23.542 88 31 88H70C77.168 88 83 81.72 83 74V48.337C88.201 47.249 92 42.642 92 36.958V35.869C92 35.679 91.964 35.491 91.894 35.315zM88.54 35H72.304L67.78 16H80.983zM49 16V35H31.78L36.304 16zM64.696 16L69.22 35H52V16zM48.967 37C48.944 41.736 45.092 45.583 40.36 45.583 35.623 45.583 31.768 41.736 31.745 37zM69.123 37C69.1 41.736 65.269 45.583 60.562 45.583 55.837 45.583 51.994 41.736 51.97 37zM19.975 16H33.22L28.696 35H11.526zM11.002 37H28.74C28.716 41.657 24.665 45.583 19.871 45.583 19.638 45.583 19.408 45.566 19.179 45.548L18.978 45.537C14.584 45.087 11.025 41.364 11.002 37M37 85V65.996C37 62.564 40.656 60 43.926 60H56.074C59.453 60 62 62.578 62 65.996V85zM80 74C80 80.065 75.514 85 70 85H65V65.996C65 60.951 61.079 57 56.074 57H43.926C39.231 57 34 60.694 34 65.996V85H31C25.243 85 20 79.757 20 74V48.583C20.03 48.583 20.059 48.577 20.089 48.576A12 12 0 0 0 21.556 48.459C21.595 48.454 21.632 48.445 21.67 48.439 22.155 48.363 22.631 48.261 23.096 48.127 23.128 48.118 23.158 48.106 23.189 48.097 23.658 47.958 24.116 47.793 24.561 47.6L24.635 47.565C25.083 47.367 25.517 47.144 25.935 46.894 25.954 46.883 25.971 46.871 25.989 46.859 26.41 46.604 26.816 46.326 27.202 46.024L27.238 45.994C27.627 45.687 27.998 45.358 28.346 45.007L28.366 44.986C28.717 44.631 29.047 44.255 29.35 43.859L29.359 43.847C29.665 43.447 29.947 43.029 30.2 42.594 32.185 46.163 35.995 48.583 40.359 48.583 44.688 48.583 48.472 46.198 50.467 42.671 52.46 46.198 56.238 48.583 60.562 48.583 64.867 48.583 68.63 46.205 70.621 42.687 70.862 43.116 71.132 43.527 71.424 43.92 71.522 44.051 71.635 44.168 71.737 44.295 71.942 44.548 72.144 44.802 72.37 45.037 72.506 45.178 72.655 45.303 72.797 45.436 73.01 45.637 73.22 45.841 73.447 46.025 73.609 46.156 73.783 46.27 73.952 46.392 74.179 46.557 74.402 46.723 74.64 46.871 74.825 46.985 75.019 47.081 75.209 47.185 75.448 47.315 75.688 47.447 75.937 47.56 76.14 47.652 76.351 47.727 76.56 47.808 76.812 47.905 77.064 48.002 77.326 48.081 77.544 48.147 77.767 48.198 77.99 48.251 78.256 48.314 78.52 48.375 78.793 48.419 79.022 48.457 79.256 48.48 79.49 48.503 79.662 48.52 79.827 48.555 80 48.564zM81.584 45.525C81.555 45.524 81.528 45.517 81.5 45.517 81.408 45.517 81.322 45.537 81.236 45.552 81.033 45.566 80.832 45.583 80.625 45.583 75.873 45.583 72.148 41.816 72.127 37H88.998C88.979 41.481 85.799 45.051 81.584 45.525" data-fill-palette-color="accent"></path></svg></g></svg></g></svg></g></svg></g></svg></g><defs></defs></svg><rect width="395.5199999999999" height="118.67458516089087" fill="none" stroke="none" visibility="hidden"></rect></g></svg></g></svg>